<mxfile host="app.diagrams.net" modified="2023-10-26T10:05:08.876Z" agent="Mozilla/5.0 (Windows NT 10.0; Win64; x64; rv:109.0) Gecko/20100101 Firefox/118.0" etag="z4TxUcSEgX762XrMJ3R4" version="22.0.7" type="google" pages="2">
  <diagram name="Sprint 1" id="fjozdw4W6Td2zCaxfDoO">
    <mxGraphModel grid="1" page="1" gridSize="10" guides="1" tooltips="1" connect="1" arrows="1" fold="1" pageScale="1" pageWidth="827" pageHeight="1169" math="0" shadow="0">
      <root>
        <mxCell id="0" />
        <mxCell id="1" parent="0" />
        <mxCell id="h-PnIlIwHNejanjx71zt-1" value="Sprint 1" style="ellipse;whiteSpace=wrap;html=1;" vertex="1" parent="1">
          <mxGeometry x="50" y="20" width="120" height="80" as="geometry" />
        </mxCell>
        <mxCell id="h-PnIlIwHNejanjx71zt-9" style="edgeStyle=orthogonalEdgeStyle;rounded=0;orthogonalLoop=1;jettySize=auto;html=1;entryX=0.5;entryY=0;entryDx=0;entryDy=0;fillColor=#CCFF99;" edge="1" parent="1" source="h-PnIlIwHNejanjx71zt-4" target="h-PnIlIwHNejanjx71zt-5">
          <mxGeometry relative="1" as="geometry" />
        </mxCell>
        <mxCell id="h-PnIlIwHNejanjx71zt-4" value="Database SQL" style="rounded=1;whiteSpace=wrap;html=1;fillColor=#CCFF99;" vertex="1" parent="1">
          <mxGeometry x="270" y="50" width="120" height="60" as="geometry" />
        </mxCell>
        <mxCell id="h-PnIlIwHNejanjx71zt-10" style="edgeStyle=orthogonalEdgeStyle;rounded=0;orthogonalLoop=1;jettySize=auto;html=1;entryX=0.5;entryY=0;entryDx=0;entryDy=0;fillColor=#CCFF99;" edge="1" parent="1" source="h-PnIlIwHNejanjx71zt-5" target="h-PnIlIwHNejanjx71zt-8">
          <mxGeometry relative="1" as="geometry" />
        </mxCell>
        <mxCell id="h-PnIlIwHNejanjx71zt-12" style="edgeStyle=orthogonalEdgeStyle;rounded=0;orthogonalLoop=1;jettySize=auto;html=1;fillColor=#CCFF99;" edge="1" parent="1" source="h-PnIlIwHNejanjx71zt-5" target="h-PnIlIwHNejanjx71zt-13">
          <mxGeometry relative="1" as="geometry">
            <mxPoint x="200" y="185" as="targetPoint" />
          </mxGeometry>
        </mxCell>
        <mxCell id="h-PnIlIwHNejanjx71zt-5" value="Create new instance&amp;nbsp;" style="ellipse;whiteSpace=wrap;html=1;fillColor=#CCFF99;" vertex="1" parent="1">
          <mxGeometry x="270" y="150" width="120" height="70" as="geometry" />
        </mxCell>
        <mxCell id="h-PnIlIwHNejanjx71zt-6" value="VS CODE" style="rounded=1;whiteSpace=wrap;html=1;fillColor=#CCFF99;" vertex="1" parent="1">
          <mxGeometry x="480" y="50" width="120" height="60" as="geometry" />
        </mxCell>
        <mxCell id="h-PnIlIwHNejanjx71zt-21" style="edgeStyle=orthogonalEdgeStyle;rounded=0;orthogonalLoop=1;jettySize=auto;html=1;exitX=0.5;exitY=1;exitDx=0;exitDy=0;entryX=0.5;entryY=0;entryDx=0;entryDy=0;fillColor=#CCFF99;" edge="1" parent="1" source="h-PnIlIwHNejanjx71zt-8" target="h-PnIlIwHNejanjx71zt-18">
          <mxGeometry relative="1" as="geometry" />
        </mxCell>
        <mxCell id="h-PnIlIwHNejanjx71zt-8" value="Create .env&lt;br&gt;index.js&lt;br&gt;gitignore" style="ellipse;whiteSpace=wrap;html=1;fillColor=#CCFF99;" vertex="1" parent="1">
          <mxGeometry x="270" y="260" width="120" height="70" as="geometry" />
        </mxCell>
        <mxCell id="h-PnIlIwHNejanjx71zt-11" style="edgeStyle=orthogonalEdgeStyle;rounded=0;orthogonalLoop=1;jettySize=auto;html=1;entryX=1.007;entryY=0.624;entryDx=0;entryDy=0;entryPerimeter=0;fillColor=#CCFF99;" edge="1" parent="1" source="h-PnIlIwHNejanjx71zt-6" target="h-PnIlIwHNejanjx71zt-8">
          <mxGeometry relative="1" as="geometry" />
        </mxCell>
        <mxCell id="h-PnIlIwHNejanjx71zt-14" style="edgeStyle=orthogonalEdgeStyle;rounded=0;orthogonalLoop=1;jettySize=auto;html=1;fillColor=#CCFF99;" edge="1" parent="1" source="h-PnIlIwHNejanjx71zt-13" target="h-PnIlIwHNejanjx71zt-15">
          <mxGeometry relative="1" as="geometry">
            <mxPoint x="110" y="260" as="targetPoint" />
          </mxGeometry>
        </mxCell>
        <mxCell id="h-PnIlIwHNejanjx71zt-13" value="Entity Relationship Diagram" style="rounded=0;whiteSpace=wrap;html=1;fillColor=#CCFF99;" vertex="1" parent="1">
          <mxGeometry x="50" y="190" width="120" height="60" as="geometry" />
        </mxCell>
        <mxCell id="h-PnIlIwHNejanjx71zt-17" style="edgeStyle=orthogonalEdgeStyle;rounded=0;orthogonalLoop=1;jettySize=auto;html=1;entryX=0;entryY=0.5;entryDx=0;entryDy=0;" edge="1" parent="1" source="h-PnIlIwHNejanjx71zt-15" target="h-PnIlIwHNejanjx71zt-16">
          <mxGeometry relative="1" as="geometry" />
        </mxCell>
        <mxCell id="h-PnIlIwHNejanjx71zt-15" value="ID:&lt;br&gt;Statement:&lt;br&gt;Answer:&amp;nbsp;" style="rounded=0;whiteSpace=wrap;html=1;fillColor=#CCFF99;" vertex="1" parent="1">
          <mxGeometry x="50" y="270" width="120" height="60" as="geometry" />
        </mxCell>
        <mxCell id="h-PnIlIwHNejanjx71zt-16" value="App.js (CRUD)&lt;br&gt;get by ID&lt;br&gt;quiz.js" style="ellipse;whiteSpace=wrap;html=1;fillColor=#ccff99;" vertex="1" parent="1">
          <mxGeometry x="270" y="549" width="120" height="70" as="geometry" />
        </mxCell>
        <mxCell id="h-PnIlIwHNejanjx71zt-22" style="edgeStyle=orthogonalEdgeStyle;rounded=0;orthogonalLoop=1;jettySize=auto;html=1;exitX=0.5;exitY=1;exitDx=0;exitDy=0;entryX=0.5;entryY=0;entryDx=0;entryDy=0;" edge="1" parent="1" source="_A770x2U1m45nlNOP2uV-1" target="h-PnIlIwHNejanjx71zt-16">
          <mxGeometry relative="1" as="geometry" />
        </mxCell>
        <mxCell id="h-PnIlIwHNejanjx71zt-18" value="Packages&lt;br&gt;nodemon&lt;br&gt;morgan&lt;br&gt;express&amp;nbsp;" style="ellipse;whiteSpace=wrap;html=1;fillColor=#CCFF99;" vertex="1" parent="1">
          <mxGeometry x="270" y="370" width="120" height="70" as="geometry" />
        </mxCell>
        <mxCell id="h-PnIlIwHNejanjx71zt-19" value="Generate AI" style="triangle;whiteSpace=wrap;html=1;fillColor=#66FF66;" vertex="1" parent="1">
          <mxGeometry x="20" y="360" width="100" height="80" as="geometry" />
        </mxCell>
        <mxCell id="h-PnIlIwHNejanjx71zt-20" value="" style="shape=flexArrow;endArrow=classic;html=1;rounded=0;fillColor=#CCFF99;" edge="1" parent="1">
          <mxGeometry width="50" height="50" relative="1" as="geometry">
            <mxPoint x="80" y="370" as="sourcePoint" />
            <mxPoint x="110" y="340" as="targetPoint" />
          </mxGeometry>
        </mxCell>
        <mxCell id="h-PnIlIwHNejanjx71zt-28" style="edgeStyle=orthogonalEdgeStyle;rounded=0;orthogonalLoop=1;jettySize=auto;html=1;" edge="1" parent="1">
          <mxGeometry relative="1" as="geometry">
            <mxPoint x="120" y="340" as="targetPoint" />
            <mxPoint x="680" y="560" as="sourcePoint" />
            <Array as="points">
              <mxPoint x="680" y="650" />
              <mxPoint x="110" y="650" />
              <mxPoint x="110" y="590" />
              <mxPoint x="120" y="590" />
            </Array>
          </mxGeometry>
        </mxCell>
        <mxCell id="h-PnIlIwHNejanjx71zt-24" value="Create&lt;br&gt;Drop&lt;br&gt;Reset&lt;br&gt;Populate (Seed)" style="shape=hexagon;perimeter=hexagonPerimeter2;whiteSpace=wrap;html=1;fixedSize=1;" vertex="1" parent="1">
          <mxGeometry x="610" y="462.5" width="170" height="97.5" as="geometry" />
        </mxCell>
        <mxCell id="h-PnIlIwHNejanjx71zt-25" style="edgeStyle=orthogonalEdgeStyle;rounded=0;orthogonalLoop=1;jettySize=auto;html=1;exitX=1;exitY=0.5;exitDx=0;exitDy=0;" edge="1" parent="1" source="h-PnIlIwHNejanjx71zt-16">
          <mxGeometry relative="1" as="geometry">
            <mxPoint x="610" y="505" as="targetPoint" />
          </mxGeometry>
        </mxCell>
        <mxCell id="h-PnIlIwHNejanjx71zt-27" value="Date base Folder" style="rounded=1;whiteSpace=wrap;html=1;fillColor=#CCFF99;" vertex="1" parent="1">
          <mxGeometry x="25" y="120" width="165" height="40" as="geometry" />
        </mxCell>
        <mxCell id="_A770x2U1m45nlNOP2uV-2" value="" style="edgeStyle=orthogonalEdgeStyle;rounded=0;orthogonalLoop=1;jettySize=auto;html=1;exitX=0.5;exitY=1;exitDx=0;exitDy=0;entryX=0.5;entryY=0;entryDx=0;entryDy=0;" edge="1" parent="1" source="h-PnIlIwHNejanjx71zt-18" target="_A770x2U1m45nlNOP2uV-1">
          <mxGeometry relative="1" as="geometry">
            <mxPoint x="330" y="440" as="sourcePoint" />
            <mxPoint x="330" y="549" as="targetPoint" />
          </mxGeometry>
        </mxCell>
        <mxCell id="_A770x2U1m45nlNOP2uV-1" value="reset-database with statements" style="ellipse;whiteSpace=wrap;html=1;fillColor=#ccff99;strokeColor=#000000;" vertex="1" parent="1">
          <mxGeometry x="270" y="460" width="120" height="70" as="geometry" />
        </mxCell>
        <mxCell id="gr9q5ZO6OynjZNz6gXTn-14" value="Quiz table" style="shape=table;startSize=30;container=1;collapsible=0;childLayout=tableLayout;strokeColor=default;fontSize=16;" vertex="1" parent="1">
          <mxGeometry x="827" y="40" width="250" height="97" as="geometry" />
        </mxCell>
        <mxCell id="gr9q5ZO6OynjZNz6gXTn-15" value="" style="shape=tableRow;horizontal=0;startSize=0;swimlaneHead=0;swimlaneBody=0;strokeColor=inherit;top=0;left=0;bottom=0;right=0;collapsible=0;dropTarget=0;fillColor=none;points=[[0,0.5],[1,0.5]];portConstraint=eastwest;fontSize=16;" vertex="1" parent="gr9q5ZO6OynjZNz6gXTn-14">
          <mxGeometry y="30" width="250" height="67" as="geometry" />
        </mxCell>
        <mxCell id="gr9q5ZO6OynjZNz6gXTn-16" value="ID" style="shape=partialRectangle;html=1;whiteSpace=wrap;connectable=0;strokeColor=inherit;overflow=hidden;fillColor=none;top=0;left=0;bottom=0;right=0;pointerEvents=1;fontSize=16;" vertex="1" parent="gr9q5ZO6OynjZNz6gXTn-15">
          <mxGeometry width="84" height="67" as="geometry">
            <mxRectangle width="84" height="67" as="alternateBounds" />
          </mxGeometry>
        </mxCell>
        <mxCell id="gr9q5ZO6OynjZNz6gXTn-17" value="Statement" style="shape=partialRectangle;html=1;whiteSpace=wrap;connectable=0;strokeColor=inherit;overflow=hidden;fillColor=none;top=0;left=0;bottom=0;right=0;pointerEvents=1;fontSize=16;" vertex="1" parent="gr9q5ZO6OynjZNz6gXTn-15">
          <mxGeometry x="84" width="82" height="67" as="geometry">
            <mxRectangle width="82" height="67" as="alternateBounds" />
          </mxGeometry>
        </mxCell>
        <mxCell id="gr9q5ZO6OynjZNz6gXTn-18" value="Answer" style="shape=partialRectangle;html=1;whiteSpace=wrap;connectable=0;strokeColor=inherit;overflow=hidden;fillColor=none;top=0;left=0;bottom=0;right=0;pointerEvents=1;fontSize=16;" vertex="1" parent="gr9q5ZO6OynjZNz6gXTn-15">
          <mxGeometry x="166" width="84" height="67" as="geometry">
            <mxRectangle width="84" height="67" as="alternateBounds" />
          </mxGeometry>
        </mxCell>
        <mxCell id="gr9q5ZO6OynjZNz6gXTn-30" style="edgeStyle=orthogonalEdgeStyle;rounded=0;orthogonalLoop=1;jettySize=auto;html=1;entryX=0;entryY=0.5;entryDx=0;entryDy=0;" edge="1" parent="1" source="gr9q5ZO6OynjZNz6gXTn-27" target="gr9q5ZO6OynjZNz6gXTn-15">
          <mxGeometry relative="1" as="geometry" />
        </mxCell>
        <mxCell id="gr9q5ZO6OynjZNz6gXTn-27" value="Primary key" style="text;html=1;strokeColor=none;fillColor=none;align=center;verticalAlign=middle;whiteSpace=wrap;rounded=0;" vertex="1" parent="1">
          <mxGeometry x="750" y="88.5" width="50" height="30" as="geometry" />
        </mxCell>
        <mxCell id="h-PnIlIwHNejanjx71zt-29" value="Checked the server" style="rounded=1;whiteSpace=wrap;html=1;" vertex="1" parent="1">
          <mxGeometry x="450" y="375" width="120" height="60" as="geometry" />
        </mxCell>
      </root>
    </mxGraphModel>
  </diagram>
  <diagram id="v5rplcFaVRGkI6xPPRts" name="Sprint-2">
    <mxGraphModel grid="1" page="1" gridSize="10" guides="1" tooltips="1" connect="1" arrows="1" fold="1" pageScale="1" pageWidth="850" pageHeight="1100" math="0" shadow="0">
      <root>
        <mxCell id="0" />
        <mxCell id="1" parent="0" />
        <mxCell id="8BmEj_N_BXNHqW08cvUZ-1" value="Sprint 1" style="ellipse;whiteSpace=wrap;html=1;" vertex="1" parent="1">
          <mxGeometry x="50" y="20" width="120" height="80" as="geometry" />
        </mxCell>
        <mxCell id="8BmEj_N_BXNHqW08cvUZ-2" style="edgeStyle=orthogonalEdgeStyle;rounded=0;orthogonalLoop=1;jettySize=auto;html=1;entryX=0.5;entryY=0;entryDx=0;entryDy=0;fillColor=#CCFF99;" edge="1" parent="1" source="8BmEj_N_BXNHqW08cvUZ-3" target="8BmEj_N_BXNHqW08cvUZ-6">
          <mxGeometry relative="1" as="geometry" />
        </mxCell>
        <mxCell id="8BmEj_N_BXNHqW08cvUZ-3" value="Database SQL" style="rounded=1;whiteSpace=wrap;html=1;fillColor=#CCFF99;" vertex="1" parent="1">
          <mxGeometry x="270" y="50" width="120" height="60" as="geometry" />
        </mxCell>
        <mxCell id="8BmEj_N_BXNHqW08cvUZ-4" style="edgeStyle=orthogonalEdgeStyle;rounded=0;orthogonalLoop=1;jettySize=auto;html=1;entryX=0.5;entryY=0;entryDx=0;entryDy=0;fillColor=#CCFF99;" edge="1" parent="1" source="8BmEj_N_BXNHqW08cvUZ-6" target="8BmEj_N_BXNHqW08cvUZ-9">
          <mxGeometry relative="1" as="geometry" />
        </mxCell>
        <mxCell id="8BmEj_N_BXNHqW08cvUZ-5" style="edgeStyle=orthogonalEdgeStyle;rounded=0;orthogonalLoop=1;jettySize=auto;html=1;fillColor=#CCFF99;" edge="1" parent="1" source="8BmEj_N_BXNHqW08cvUZ-6" target="8BmEj_N_BXNHqW08cvUZ-12">
          <mxGeometry relative="1" as="geometry">
            <mxPoint x="200" y="185" as="targetPoint" />
          </mxGeometry>
        </mxCell>
        <mxCell id="8BmEj_N_BXNHqW08cvUZ-6" value="Create new instance&amp;nbsp;" style="ellipse;whiteSpace=wrap;html=1;fillColor=#CCFF99;" vertex="1" parent="1">
          <mxGeometry x="270" y="150" width="120" height="70" as="geometry" />
        </mxCell>
        <mxCell id="8BmEj_N_BXNHqW08cvUZ-7" value="VS CODE" style="rounded=1;whiteSpace=wrap;html=1;fillColor=#CCFF99;" vertex="1" parent="1">
          <mxGeometry x="480" y="50" width="120" height="60" as="geometry" />
        </mxCell>
        <mxCell id="8BmEj_N_BXNHqW08cvUZ-8" style="edgeStyle=orthogonalEdgeStyle;rounded=0;orthogonalLoop=1;jettySize=auto;html=1;exitX=0.5;exitY=1;exitDx=0;exitDy=0;entryX=0.5;entryY=0;entryDx=0;entryDy=0;fillColor=#CCFF99;" edge="1" parent="1" source="8BmEj_N_BXNHqW08cvUZ-9" target="8BmEj_N_BXNHqW08cvUZ-17">
          <mxGeometry relative="1" as="geometry" />
        </mxCell>
        <mxCell id="8BmEj_N_BXNHqW08cvUZ-9" value="Create .env&lt;br&gt;index.js&lt;br&gt;gitignore" style="ellipse;whiteSpace=wrap;html=1;fillColor=#CCFF99;" vertex="1" parent="1">
          <mxGeometry x="270" y="260" width="120" height="70" as="geometry" />
        </mxCell>
        <mxCell id="8BmEj_N_BXNHqW08cvUZ-10" style="edgeStyle=orthogonalEdgeStyle;rounded=0;orthogonalLoop=1;jettySize=auto;html=1;entryX=1.007;entryY=0.624;entryDx=0;entryDy=0;entryPerimeter=0;fillColor=#CCFF99;" edge="1" parent="1" source="8BmEj_N_BXNHqW08cvUZ-7" target="8BmEj_N_BXNHqW08cvUZ-9">
          <mxGeometry relative="1" as="geometry" />
        </mxCell>
        <mxCell id="8BmEj_N_BXNHqW08cvUZ-11" style="edgeStyle=orthogonalEdgeStyle;rounded=0;orthogonalLoop=1;jettySize=auto;html=1;fillColor=#CCFF99;" edge="1" parent="1" source="8BmEj_N_BXNHqW08cvUZ-12" target="8BmEj_N_BXNHqW08cvUZ-14">
          <mxGeometry relative="1" as="geometry">
            <mxPoint x="110" y="260" as="targetPoint" />
          </mxGeometry>
        </mxCell>
        <mxCell id="8BmEj_N_BXNHqW08cvUZ-12" value="Entity Relationship Diagram" style="rounded=0;whiteSpace=wrap;html=1;fillColor=#CCFF99;" vertex="1" parent="1">
          <mxGeometry x="50" y="190" width="120" height="60" as="geometry" />
        </mxCell>
        <mxCell id="8BmEj_N_BXNHqW08cvUZ-13" style="edgeStyle=orthogonalEdgeStyle;rounded=0;orthogonalLoop=1;jettySize=auto;html=1;entryX=0;entryY=0.5;entryDx=0;entryDy=0;" edge="1" parent="1" source="8BmEj_N_BXNHqW08cvUZ-14" target="8BmEj_N_BXNHqW08cvUZ-15">
          <mxGeometry relative="1" as="geometry" />
        </mxCell>
        <mxCell id="8BmEj_N_BXNHqW08cvUZ-14" value="ID:&lt;br&gt;Statement:&lt;br&gt;Answer:&amp;nbsp;" style="rounded=0;whiteSpace=wrap;html=1;fillColor=#CCFF99;" vertex="1" parent="1">
          <mxGeometry x="50" y="270" width="120" height="60" as="geometry" />
        </mxCell>
        <mxCell id="8BmEj_N_BXNHqW08cvUZ-15" value="App.js (CRUD)&lt;br&gt;get by ID&lt;br&gt;quiz.js" style="ellipse;whiteSpace=wrap;html=1;fillColor=#ccff99;" vertex="1" parent="1">
          <mxGeometry x="270" y="549" width="120" height="70" as="geometry" />
        </mxCell>
        <mxCell id="8BmEj_N_BXNHqW08cvUZ-16" style="edgeStyle=orthogonalEdgeStyle;rounded=0;orthogonalLoop=1;jettySize=auto;html=1;exitX=0.5;exitY=1;exitDx=0;exitDy=0;entryX=0.5;entryY=0;entryDx=0;entryDy=0;" edge="1" parent="1" source="8BmEj_N_BXNHqW08cvUZ-25" target="8BmEj_N_BXNHqW08cvUZ-15">
          <mxGeometry relative="1" as="geometry" />
        </mxCell>
        <mxCell id="8BmEj_N_BXNHqW08cvUZ-17" value="Packages&lt;br&gt;nodemon&lt;br&gt;morgan&lt;br&gt;express&amp;nbsp;" style="ellipse;whiteSpace=wrap;html=1;fillColor=#CCFF99;" vertex="1" parent="1">
          <mxGeometry x="270" y="370" width="120" height="70" as="geometry" />
        </mxCell>
        <mxCell id="8BmEj_N_BXNHqW08cvUZ-18" value="Generate AI" style="triangle;whiteSpace=wrap;html=1;fillColor=#66FF66;" vertex="1" parent="1">
          <mxGeometry x="20" y="360" width="100" height="80" as="geometry" />
        </mxCell>
        <mxCell id="8BmEj_N_BXNHqW08cvUZ-19" value="" style="shape=flexArrow;endArrow=classic;html=1;rounded=0;fillColor=#CCFF99;" edge="1" parent="1">
          <mxGeometry width="50" height="50" relative="1" as="geometry">
            <mxPoint x="80" y="370" as="sourcePoint" />
            <mxPoint x="110" y="340" as="targetPoint" />
          </mxGeometry>
        </mxCell>
        <mxCell id="8BmEj_N_BXNHqW08cvUZ-20" style="edgeStyle=orthogonalEdgeStyle;rounded=0;orthogonalLoop=1;jettySize=auto;html=1;" edge="1" parent="1">
          <mxGeometry relative="1" as="geometry">
            <mxPoint x="120" y="340" as="targetPoint" />
            <mxPoint x="680" y="560" as="sourcePoint" />
            <Array as="points">
              <mxPoint x="680" y="650" />
              <mxPoint x="110" y="650" />
              <mxPoint x="110" y="590" />
              <mxPoint x="120" y="590" />
            </Array>
          </mxGeometry>
        </mxCell>
        <mxCell id="8BmEj_N_BXNHqW08cvUZ-21" value="Create&lt;br&gt;Drop&lt;br&gt;Reset&lt;br&gt;Populate (Seed)" style="shape=hexagon;perimeter=hexagonPerimeter2;whiteSpace=wrap;html=1;fixedSize=1;fillColor=#ccff99;" vertex="1" parent="1">
          <mxGeometry x="610" y="462.5" width="170" height="97.5" as="geometry" />
        </mxCell>
        <mxCell id="8BmEj_N_BXNHqW08cvUZ-22" style="edgeStyle=orthogonalEdgeStyle;rounded=0;orthogonalLoop=1;jettySize=auto;html=1;exitX=1;exitY=0.5;exitDx=0;exitDy=0;" edge="1" parent="1" source="8BmEj_N_BXNHqW08cvUZ-15">
          <mxGeometry relative="1" as="geometry">
            <mxPoint x="610" y="505" as="targetPoint" />
          </mxGeometry>
        </mxCell>
        <mxCell id="8BmEj_N_BXNHqW08cvUZ-23" value="Date base Folder" style="rounded=1;whiteSpace=wrap;html=1;fillColor=#CCFF99;" vertex="1" parent="1">
          <mxGeometry x="25" y="120" width="165" height="40" as="geometry" />
        </mxCell>
        <mxCell id="8BmEj_N_BXNHqW08cvUZ-24" value="" style="edgeStyle=orthogonalEdgeStyle;rounded=0;orthogonalLoop=1;jettySize=auto;html=1;exitX=0.5;exitY=1;exitDx=0;exitDy=0;entryX=0.5;entryY=0;entryDx=0;entryDy=0;" edge="1" parent="1" source="8BmEj_N_BXNHqW08cvUZ-17" target="8BmEj_N_BXNHqW08cvUZ-25">
          <mxGeometry relative="1" as="geometry">
            <mxPoint x="330" y="440" as="sourcePoint" />
            <mxPoint x="330" y="549" as="targetPoint" />
          </mxGeometry>
        </mxCell>
        <mxCell id="8BmEj_N_BXNHqW08cvUZ-25" value="reset-database with statements" style="ellipse;whiteSpace=wrap;html=1;fillColor=#ccff99;strokeColor=#000000;" vertex="1" parent="1">
          <mxGeometry x="270" y="460" width="120" height="70" as="geometry" />
        </mxCell>
        <mxCell id="8BmEj_N_BXNHqW08cvUZ-26" value="Error handling for get by Id" style="rounded=1;whiteSpace=wrap;html=1;fillColor=#ccff99;" vertex="1" parent="1">
          <mxGeometry x="430" y="550" width="120" height="60" as="geometry" />
        </mxCell>
        <mxCell id="8BmEj_N_BXNHqW08cvUZ-27" value="Sprint 2" style="ellipse;whiteSpace=wrap;html=1;" vertex="1" parent="1">
          <mxGeometry x="870" y="40" width="120" height="80" as="geometry" />
        </mxCell>
        <mxCell id="8BmEj_N_BXNHqW08cvUZ-30" value="" style="edgeStyle=orthogonalEdgeStyle;rounded=0;orthogonalLoop=1;jettySize=auto;html=1;" edge="1" parent="1" source="8BmEj_N_BXNHqW08cvUZ-28" target="8BmEj_N_BXNHqW08cvUZ-29">
          <mxGeometry relative="1" as="geometry" />
        </mxCell>
        <mxCell id="8BmEj_N_BXNHqW08cvUZ-28" value="Install and use Morgan to log requests" style="rounded=1;whiteSpace=wrap;html=1;fillColor=#ccff99;" vertex="1" parent="1">
          <mxGeometry x="1080" y="50" width="120" height="60" as="geometry" />
        </mxCell>
        <mxCell id="8BmEj_N_BXNHqW08cvUZ-32" value="" style="edgeStyle=orthogonalEdgeStyle;rounded=0;orthogonalLoop=1;jettySize=auto;html=1;fillColor=#99FF99;" edge="1" parent="1" source="8BmEj_N_BXNHqW08cvUZ-29" target="8BmEj_N_BXNHqW08cvUZ-31">
          <mxGeometry relative="1" as="geometry" />
        </mxCell>
        <mxCell id="8BmEj_N_BXNHqW08cvUZ-29" value="Install vitest" style="whiteSpace=wrap;html=1;rounded=1;fillColor=#99FF99;" vertex="1" parent="1">
          <mxGeometry x="1080" y="190" width="120" height="60" as="geometry" />
        </mxCell>
        <mxCell id="8BmEj_N_BXNHqW08cvUZ-34" value="" style="edgeStyle=orthogonalEdgeStyle;rounded=0;orthogonalLoop=1;jettySize=auto;html=1;fillColor=#99FF99;" edge="1" parent="1" source="8BmEj_N_BXNHqW08cvUZ-31" target="8BmEj_N_BXNHqW08cvUZ-33">
          <mxGeometry relative="1" as="geometry" />
        </mxCell>
        <mxCell id="8BmEj_N_BXNHqW08cvUZ-38" value="" style="edgeStyle=orthogonalEdgeStyle;rounded=0;orthogonalLoop=1;jettySize=auto;html=1;fillColor=#99FF99;" edge="1" parent="1" source="8BmEj_N_BXNHqW08cvUZ-31" target="8BmEj_N_BXNHqW08cvUZ-37">
          <mxGeometry relative="1" as="geometry" />
        </mxCell>
        <mxCell id="8BmEj_N_BXNHqW08cvUZ-40" value="" style="edgeStyle=orthogonalEdgeStyle;rounded=0;orthogonalLoop=1;jettySize=auto;html=1;fillColor=#99FF99;" edge="1" parent="1" source="8BmEj_N_BXNHqW08cvUZ-31" target="8BmEj_N_BXNHqW08cvUZ-39">
          <mxGeometry relative="1" as="geometry" />
        </mxCell>
        <mxCell id="8BmEj_N_BXNHqW08cvUZ-31" value="Write tests to check that object returned is what is expected" style="whiteSpace=wrap;html=1;rounded=1;fillColor=#99FF99;" vertex="1" parent="1">
          <mxGeometry x="1080" y="370" width="120" height="60" as="geometry" />
        </mxCell>
        <mxCell id="8BmEj_N_BXNHqW08cvUZ-36" value="" style="edgeStyle=orthogonalEdgeStyle;rounded=0;orthogonalLoop=1;jettySize=auto;html=1;fillColor=#99FF99;" edge="1" parent="1" source="8BmEj_N_BXNHqW08cvUZ-33" target="8BmEj_N_BXNHqW08cvUZ-35">
          <mxGeometry relative="1" as="geometry" />
        </mxCell>
        <mxCell id="8BmEj_N_BXNHqW08cvUZ-33" value="Assert that id is a number" style="whiteSpace=wrap;html=1;rounded=1;fillColor=#99FF99;" vertex="1" parent="1">
          <mxGeometry x="1280" y="370" width="120" height="60" as="geometry" />
        </mxCell>
        <mxCell id="8BmEj_N_BXNHqW08cvUZ-35" value="Assert that statement and answer are strings" style="whiteSpace=wrap;html=1;rounded=1;fillColor=#99FF99;" vertex="1" parent="1">
          <mxGeometry x="1280" y="510" width="120" height="60" as="geometry" />
        </mxCell>
        <mxCell id="8BmEj_N_BXNHqW08cvUZ-37" value="Assert that object is returned" style="whiteSpace=wrap;html=1;rounded=1;fillColor=#99FF99;" vertex="1" parent="1">
          <mxGeometry x="1080" y="510" width="120" height="60" as="geometry" />
        </mxCell>
        <mxCell id="8BmEj_N_BXNHqW08cvUZ-39" value="Assert that error handling is working" style="whiteSpace=wrap;html=1;rounded=1;fillColor=#99FF99;" vertex="1" parent="1">
          <mxGeometry x="880" y="370" width="120" height="60" as="geometry" />
        </mxCell>
        <mxCell id="8BmEj_N_BXNHqW08cvUZ-41" value="Integration testing" style="rounded=1;whiteSpace=wrap;html=1;fillColor=#99FF99;" vertex="1" parent="1">
          <mxGeometry x="1080" y="280" width="120" height="60" as="geometry" />
        </mxCell>
      </root>
    </mxGraphModel>
  </diagram>
</mxfile>
